<mxfile host="app.diagrams.net" modified="2023-09-24T03:21:47.940Z" agent="Mozilla/5.0 (Windows NT 10.0; Win64; x64) AppleWebKit/537.36 (KHTML, like Gecko) Chrome/116.0.0.0 Safari/537.36" etag="3emomK5arzHpiRxaRnBg" version="21.8.1" type="github">
  <diagram id="R2lEEEUBdFMjLlhIrx00" name="Page-1">
    <mxGraphModel dx="1432" dy="830" grid="1" gridSize="10" guides="1" tooltips="1" connect="1" arrows="1" fold="1" page="1" pageScale="1" pageWidth="850" pageHeight="1100" math="0" shadow="0" extFonts="Permanent Marker^https://fonts.googleapis.com/css?family=Permanent+Marker">
      <root>
        <mxCell id="0" />
        <mxCell id="1" parent="0" />
        <mxCell id="i7j0BWkb8BHngf7Q0tZu-2" value="EMPLOYEE" style="whiteSpace=wrap;html=1;aspect=fixed;fontStyle=1;fontFamily=Helvetica;" vertex="1" parent="1">
          <mxGeometry x="190" y="660" width="80" height="80" as="geometry" />
        </mxCell>
        <mxCell id="i7j0BWkb8BHngf7Q0tZu-3" value="number" style="ellipse;whiteSpace=wrap;html=1;aspect=fixed;" vertex="1" parent="1">
          <mxGeometry x="160" y="850" width="50" height="50" as="geometry" />
        </mxCell>
        <mxCell id="i7j0BWkb8BHngf7Q0tZu-4" value="number" style="ellipse;whiteSpace=wrap;html=1;aspect=fixed;" vertex="1" parent="1">
          <mxGeometry x="70" y="490" width="50" height="50" as="geometry" />
        </mxCell>
        <mxCell id="i7j0BWkb8BHngf7Q0tZu-5" value="number" style="ellipse;whiteSpace=wrap;html=1;aspect=fixed;" vertex="1" parent="1">
          <mxGeometry x="90" y="770" width="50" height="50" as="geometry" />
        </mxCell>
        <mxCell id="i7j0BWkb8BHngf7Q0tZu-6" value="number" style="ellipse;whiteSpace=wrap;html=1;aspect=fixed;" vertex="1" parent="1">
          <mxGeometry x="40" y="675" width="50" height="50" as="geometry" />
        </mxCell>
        <mxCell id="i7j0BWkb8BHngf7Q0tZu-7" value="number" style="ellipse;whiteSpace=wrap;html=1;aspect=fixed;" vertex="1" parent="1">
          <mxGeometry x="40" y="570" width="50" height="50" as="geometry" />
        </mxCell>
        <mxCell id="i7j0BWkb8BHngf7Q0tZu-9" value="" style="endArrow=none;html=1;rounded=0;" edge="1" parent="1" source="i7j0BWkb8BHngf7Q0tZu-4" target="i7j0BWkb8BHngf7Q0tZu-2">
          <mxGeometry width="50" height="50" relative="1" as="geometry">
            <mxPoint x="400" y="660" as="sourcePoint" />
            <mxPoint x="200" y="650" as="targetPoint" />
          </mxGeometry>
        </mxCell>
        <mxCell id="i7j0BWkb8BHngf7Q0tZu-10" value="" style="endArrow=none;html=1;rounded=0;exitX=1;exitY=1;exitDx=0;exitDy=0;" edge="1" parent="1" source="i7j0BWkb8BHngf7Q0tZu-7" target="i7j0BWkb8BHngf7Q0tZu-2">
          <mxGeometry width="50" height="50" relative="1" as="geometry">
            <mxPoint x="90" y="590" as="sourcePoint" />
            <mxPoint x="181" y="715" as="targetPoint" />
          </mxGeometry>
        </mxCell>
        <mxCell id="i7j0BWkb8BHngf7Q0tZu-11" value="" style="endArrow=none;html=1;rounded=0;entryX=0;entryY=0.75;entryDx=0;entryDy=0;" edge="1" parent="1" target="i7j0BWkb8BHngf7Q0tZu-2">
          <mxGeometry width="50" height="50" relative="1" as="geometry">
            <mxPoint x="130" y="780" as="sourcePoint" />
            <mxPoint x="180" y="730" as="targetPoint" />
          </mxGeometry>
        </mxCell>
        <mxCell id="i7j0BWkb8BHngf7Q0tZu-12" value="" style="endArrow=none;html=1;rounded=0;exitX=1;exitY=0.5;exitDx=0;exitDy=0;" edge="1" parent="1" source="i7j0BWkb8BHngf7Q0tZu-6" target="i7j0BWkb8BHngf7Q0tZu-2">
          <mxGeometry width="50" height="50" relative="1" as="geometry">
            <mxPoint x="70" y="740" as="sourcePoint" />
            <mxPoint x="120" y="690" as="targetPoint" />
          </mxGeometry>
        </mxCell>
        <mxCell id="i7j0BWkb8BHngf7Q0tZu-13" value="" style="endArrow=none;html=1;rounded=0;" edge="1" parent="1" target="i7j0BWkb8BHngf7Q0tZu-2">
          <mxGeometry width="50" height="50" relative="1" as="geometry">
            <mxPoint x="190" y="850" as="sourcePoint" />
            <mxPoint x="240" y="800" as="targetPoint" />
          </mxGeometry>
        </mxCell>
      </root>
    </mxGraphModel>
  </diagram>
</mxfile>
